<svg xmlns="http://www.w3.org/2000/svg" viewBox="0 0 480 320" fill="none">
  <defs>
    <linearGradient id="bg-agro" x1="0" y1="0" x2="480" y2="320" gradientUnits="userSpaceOnUse">
      <stop offset="0%" stop-color="#0d2b0a"/>
      <stop offset="100%" stop-color="#1a4f10"/>
    </linearGradient>
    <radialGradient id="glow-agro" cx="50%" cy="55%" r="45%">
      <stop offset="0%" stop-color="#48A111" stop-opacity="0.25"/>
      <stop offset="100%" stop-color="#48A111" stop-opacity="0"/>
    </radialGradient>
  </defs>
  <rect width="480" height="320" fill="url(#bg-agro)" rx="20"/>
  <path d="M0 40h480M0 80h480M0 120h480M0 160h480M0 200h480M0 240h480M0 280h480M40 0v320M80 0v320M120 0v320M160 0v320M200 0v320M240 0v320M280 0v320M320 0v320M360 0v320M400 0v320M440 0v320" stroke="rgba(255,255,255,0.04)" stroke-width="1"/>
  <ellipse cx="240" cy="180" rx="120" ry="80" fill="url(#glow-agro)"/>
  <!-- Stem -->
  <path d="M240 280 L240 140" stroke="#48A111" stroke-width="3" stroke-linecap="round" stroke-opacity="0.8"/>
  <!-- Main leaf -->
  <path d="M240 140 C200 100 140 90 120 140 C100 185 155 215 240 200 C240 200 240 170 240 140Z" fill="#48A111" fill-opacity="0.25" stroke="#48A111" stroke-width="2" stroke-opacity="0.7"/>
  <!-- Right leaf -->
  <path d="M240 170 C280 130 340 120 360 170 C380 215 325 240 240 225 C240 225 240 195 240 170Z" fill="#6bce2a" fill-opacity="0.2" stroke="#6bce2a" stroke-width="2" stroke-opacity="0.6"/>
  <!-- Small leaf -->
  <path d="M240 220 C220 195 195 190 188 210 C181 228 205 240 240 238 C240 238 240 225 240 220Z" fill="#48A111" fill-opacity="0.3" stroke="#48A111" stroke-width="1.5" stroke-opacity="0.6"/>
  <!-- Leaf veins main -->
  <path d="M240 200 C210 165 165 145 130 148" stroke="#48A111" stroke-width="1.2" stroke-opacity="0.4" stroke-dasharray="4 3"/>
  <path d="M240 225 C265 200 310 185 345 178" stroke="#6bce2a" stroke-width="1.2" stroke-opacity="0.4" stroke-dasharray="4 3"/>
  <!-- Molecular nodes -->
  <circle cx="105" cy="100" r="9" fill="none" stroke="#48A111" stroke-width="1.5" stroke-opacity="0.6"/>
  <circle cx="78" cy="78" r="6" fill="#48A111" opacity="0.25"/>
  <circle cx="130" cy="75" r="5" fill="#48A111" opacity="0.2"/>
  <circle cx="75" cy="118" r="5" fill="#6bce2a" opacity="0.2"/>
  <line x1="105" y1="100" x2="78" y2="78" stroke="#48A111" stroke-width="1.2" stroke-opacity="0.35"/>
  <line x1="105" y1="100" x2="130" y2="75" stroke="#48A111" stroke-width="1.2" stroke-opacity="0.35"/>
  <line x1="105" y1="100" x2="75" y2="118" stroke="#48A111" stroke-width="1.2" stroke-opacity="0.35"/>
  <!-- Right molecules -->
  <circle cx="375" cy="95" r="8" fill="none" stroke="#6bce2a" stroke-width="1.5" stroke-opacity="0.55"/>
  <circle cx="400" cy="75" r="5.5" fill="#6bce2a" opacity="0.22"/>
  <circle cx="405" cy="115" r="5" fill="#6bce2a" opacity="0.18"/>
  <line x1="375" y1="95" x2="400" y2="75" stroke="#6bce2a" stroke-width="1.2" stroke-opacity="0.3"/>
  <line x1="375" y1="95" x2="405" y2="115" stroke="#6bce2a" stroke-width="1.2" stroke-opacity="0.3"/>
  <!-- Nutrient dots floating -->
  <circle cx="158" cy="58" r="4" fill="#F2B50B" opacity="0.55"/>
  <circle cx="300" cy="52" r="3" fill="#F2B50B" opacity="0.45"/>
  <circle cx="350" cy="90" r="3.5" fill="#F2B50B" opacity="0.4"/>
  <circle cx="85" cy="165" r="3" fill="#F2B50B" opacity="0.4"/>
  <circle cx="400" cy="200" r="3.5" fill="#F2B50B" opacity="0.35"/>
  <!-- Label -->
  <rect x="150" y="287" width="180" height="24" rx="7" fill="rgba(72,161,17,0.12)" stroke="#48A111" stroke-width="1" stroke-opacity="0.45"/>
  <text x="240" y="303" text-anchor="middle" font-family="system-ui,sans-serif" font-size="11" fill="#6bce2a" font-weight="700" letter-spacing="0.5">AGRO CHEMICALS</text>
  <!-- Top badge -->
  <rect x="20" y="20" width="80" height="24" rx="6" fill="rgba(72,161,17,0.12)" stroke="#48A111" stroke-width="1" stroke-opacity="0.4"/>
  <text x="60" y="36" text-anchor="middle" font-family="system-ui,sans-serif" font-size="10" fill="#6bce2a" font-weight="600">ORGANIC</text>
</svg>
