<svg xmlns="http://www.w3.org/2000/svg" viewBox="0 0 480 320" fill="none">
  <defs>
    <linearGradient id="bg-npk" x1="0" y1="0" x2="480" y2="320" gradientUnits="userSpaceOnUse">
      <stop offset="0%" stop-color="#0d2b0a"/>
      <stop offset="100%" stop-color="#1e4a10"/>
    </linearGradient>
    <radialGradient id="glow-npk" cx="50%" cy="60%" r="45%">
      <stop offset="0%" stop-color="#F2B50B" stop-opacity="0.2"/>
      <stop offset="100%" stop-color="#F2B50B" stop-opacity="0"/>
    </radialGradient>
  </defs>
  <rect width="480" height="320" fill="url(#bg-npk)" rx="20"/>
  <path d="M0 40h480M0 80h480M0 120h480M0 160h480M0 200h480M0 240h480M0 280h480M40 0v320M80 0v320M120 0v320M160 0v320M200 0v320M240 0v320M280 0v320M320 0v320M360 0v320M400 0v320M440 0v320" stroke="rgba(255,255,255,0.04)" stroke-width="1"/>
  <ellipse cx="240" cy="220" rx="130" ry="60" fill="url(#glow-npk)"/>
  <!-- Bag shape -->
  <path d="M145 90 L145 265 Q145 280 165 280 L315 280 Q335 280 335 265 L335 90 Q335 72 315 72 L165 72 Q145 72 145 90Z" fill="rgba(72,161,17,0.08)" stroke="#48A111" stroke-width="1.5" stroke-opacity="0.5"/>
  <!-- Bag top seal -->
  <rect x="145" y="72" width="190" height="20" rx="5" fill="rgba(72,161,17,0.2)" stroke="#48A111" stroke-width="1.2" stroke-opacity="0.6"/>
  <!-- NPK label on bag -->
  <rect x="165" y="108" width="150" height="55" rx="8" fill="rgba(255,255,255,0.06)" stroke="rgba(255,255,255,0.12)" stroke-width="1"/>
  <text x="240" y="132" text-anchor="middle" font-family="system-ui,sans-serif" font-size="22" fill="#F2B50B" font-weight="800">19-19-19</text>
  <text x="240" y="152" text-anchor="middle" font-family="system-ui,sans-serif" font-size="11" fill="#6bce2a" font-weight="600">N · P · K BALANCED</text>
  <!-- Crystal granules scattered inside bag -->
  <!-- Row 1 -->
  <rect x="175" y="177" width="10" height="10" rx="2" fill="#F2B50B" opacity="0.7" transform="rotate(15 180 182)"/>
  <rect x="198" y="173" width="9" height="9" rx="2" fill="#48A111" opacity="0.75" transform="rotate(-10 202 177)"/>
  <rect x="220" y="178" width="11" height="11" rx="2" fill="#F2B50B" opacity="0.65" transform="rotate(25 225 183)"/>
  <rect x="244" y="175" width="9" height="9" rx="2" fill="#48A111" opacity="0.7" transform="rotate(-20 248 179)"/>
  <rect x="265" y="178" width="10" height="10" rx="2" fill="#F2B50B" opacity="0.7" transform="rotate(12 270 183)"/>
  <rect x="287" y="173" width="9" height="9" rx="2" fill="#48A111" opacity="0.65" transform="rotate(-15 291 177)"/>
  <rect x="308" y="177" width="8" height="8" rx="2" fill="#F2B50B" opacity="0.6" transform="rotate(20 312 181)"/>
  <!-- Row 2 -->
  <rect x="165" y="198" width="9" height="9" rx="2" fill="#48A111" opacity="0.7" transform="rotate(-8 169 202)"/>
  <rect x="186" y="195" width="10" height="10" rx="2" fill="#F2B50B" opacity="0.65" transform="rotate(18 191 200)"/>
  <rect x="209" y="198" width="9" height="9" rx="2" fill="#48A111" opacity="0.7" transform="rotate(-22 213 202)"/>
  <rect x="232" y="194" width="11" height="11" rx="2" fill="#F2B50B" opacity="0.72" transform="rotate(8 237 199)"/>
  <rect x="255" y="198" width="9" height="9" rx="2" fill="#48A111" opacity="0.68" transform="rotate(-12 259 202)"/>
  <rect x="276" y="195" width="10" height="10" rx="2" fill="#F2B50B" opacity="0.65" transform="rotate(22 281 200)"/>
  <rect x="299" y="198" width="9" height="9" rx="2" fill="#48A111" opacity="0.7" transform="rotate(-18 303 202)"/>
  <rect x="318" y="195" width="8" height="8" rx="2" fill="#F2B50B" opacity="0.6" transform="rotate(10 322 199)"/>
  <!-- Row 3 -->
  <rect x="175" y="220" width="10" height="10" rx="2" fill="#F2B50B" opacity="0.6" transform="rotate(-10 180 225)"/>
  <rect x="200" y="218" width="9" height="9" rx="2" fill="#48A111" opacity="0.65" transform="rotate(20 204 222)"/>
  <rect x="224" y="220" width="11" height="11" rx="2" fill="#F2B50B" opacity="0.68" transform="rotate(-15 229 225)"/>
  <rect x="248" y="218" width="9" height="9" rx="2" fill="#48A111" opacity="0.62" transform="rotate(12 252 222)"/>
  <rect x="270" y="220" width="10" height="10" rx="2" fill="#F2B50B" opacity="0.65" transform="rotate(-20 275 225)"/>
  <rect x="293" y="218" width="9" height="9" rx="2" fill="#48A111" opacity="0.65" transform="rotate(8 297 222)"/>
  <rect x="312" y="220" width="8" height="8" rx="2" fill="#F2B50B" opacity="0.6" transform="rotate(-12 316 224)"/>
  <!-- Row 4 partial -->
  <rect x="182" y="241" width="9" height="9" rx="2" fill="#48A111" opacity="0.5" transform="rotate(15 186 245)"/>
  <rect x="208" y="240" width="10" height="10" rx="2" fill="#F2B50B" opacity="0.52" transform="rotate(-18 213 245)"/>
  <rect x="236" y="240" width="9" height="9" rx="2" fill="#48A111" opacity="0.48" transform="rotate(22 240 244)"/>
  <rect x="262" y="241" width="10" height="10" rx="2" fill="#F2B50B" opacity="0.5" transform="rotate(-10 267 246)"/>
  <rect x="288" y="240" width="9" height="9" rx="2" fill="#48A111" opacity="0.47" transform="rotate(16 292 244)"/>
  <rect x="311" y="241" width="8" height="8" rx="2" fill="#F2B50B" opacity="0.45" transform="rotate(-20 315 245)"/>
  <!-- Shine on bag -->
  <path d="M165 80 C185 72 280 72 315 85" stroke="rgba(255,255,255,0.15)" stroke-width="3" stroke-linecap="round"/>
  <!-- Side molecule decoration -->
  <circle cx="72" cy="120" r="8" fill="none" stroke="#48A111" stroke-width="1.5" stroke-opacity="0.5"/>
  <circle cx="50" cy="100" r="5.5" fill="#48A111" opacity="0.2"/>
  <circle cx="50" cy="142" r="5" fill="#F2B50B" opacity="0.22"/>
  <circle cx="92" cy="145" r="5" fill="#48A111" opacity="0.18"/>
  <line x1="72" y1="120" x2="50" y2="100" stroke="#48A111" stroke-width="1.2" stroke-opacity="0.3"/>
  <line x1="72" y1="120" x2="50" y2="142" stroke="#F2B50B" stroke-width="1.2" stroke-opacity="0.3"/>
  <line x1="72" y1="120" x2="92" y2="145" stroke="#48A111" stroke-width="1.2" stroke-opacity="0.28"/>
  <!-- Right decoration -->
  <circle cx="405" cy="130" r="7" fill="none" stroke="#F2B50B" stroke-width="1.5" stroke-opacity="0.45"/>
  <circle cx="428" cy="110" r="5" fill="#F2B50B" opacity="0.18"/>
  <circle cx="430" cy="152" r="4.5" fill="#48A111" opacity="0.16"/>
  <line x1="405" y1="130" x2="428" y2="110" stroke="#F2B50B" stroke-width="1.2" stroke-opacity="0.28"/>
  <line x1="405" y1="130" x2="430" y2="152" stroke="#48A111" stroke-width="1.2" stroke-opacity="0.26"/>
  <!-- Label -->
  <rect x="20" y="20" width="105" height="24" rx="6" fill="rgba(242,181,11,0.12)" stroke="#F2B50B" stroke-width="1" stroke-opacity="0.4"/>
  <text x="72" y="36" text-anchor="middle" font-family="system-ui,sans-serif" font-size="10" fill="#F2B50B" font-weight="600">WATER SOLUBLE</text>
</svg>
