<svg xmlns="http://www.w3.org/2000/svg" viewBox="0 0 480 320" fill="none">
  <defs>
    <linearGradient id="bg-sp" x1="0" y1="0" x2="480" y2="320" gradientUnits="userSpaceOnUse">
      <stop offset="0%" stop-color="#1a0a20"/>
      <stop offset="100%" stop-color="#2d1245"/>
    </linearGradient>
    <linearGradient id="crystal" x1="0" y1="0" x2="1" y2="1" gradientUnits="objectBoundingBox">
      <stop offset="0%" stop-color="#c084fc" stop-opacity="0.4"/>
      <stop offset="100%" stop-color="#7c3aed" stop-opacity="0.2"/>
    </linearGradient>
    <radialGradient id="glow-sp" cx="50%" cy="50%" r="40%">
      <stop offset="0%" stop-color="#a855f7" stop-opacity="0.25"/>
      <stop offset="100%" stop-color="#a855f7" stop-opacity="0"/>
    </radialGradient>
  </defs>
  <rect width="480" height="320" fill="url(#bg-sp)" rx="20"/>
  <path d="M0 40h480M0 80h480M0 120h480M0 160h480M0 200h480M0 240h480M0 280h480M40 0v320M80 0v320M120 0v320M160 0v320M200 0v320M240 0v320M280 0v320M320 0v320M360 0v320M400 0v320M440 0v320" stroke="rgba(255,255,255,0.04)" stroke-width="1"/>
  <ellipse cx="240" cy="180" rx="100" ry="65" fill="url(#glow-sp)"/>
  <!-- Round bottom flask -->
  <path d="M215 80 L215 155 L145 255 A95 25 0 0 0 335 255 L265 155 L265 80 Z" fill="url(#crystal)" stroke="#c084fc" stroke-width="1.5" stroke-opacity="0.55"/>
  <circle cx="240" cy="255" rx="95" ry="25" r="25" stroke="#c084fc" stroke-width="1.5" stroke-opacity="0.4" fill="rgba(192,132,252,0.08)"/>
  <!-- Flask neck connector -->
  <rect x="215" y="72" width="50" height="16" rx="3" fill="rgba(192,132,252,0.15)" stroke="#c084fc" stroke-width="1.2" stroke-opacity="0.5"/>
  <!-- Distillation coil arm right -->
  <path d="M265 120 Q340 115 345 145 Q350 175 305 180 Q265 185 268 210" stroke="#c084fc" stroke-width="2" fill="none" stroke-opacity="0.5" stroke-linecap="round"/>
  <!-- Crystals inside flask -->
  <polygon points="220,200 235,175 250,200" fill="#a855f7" opacity="0.4"/>
  <polygon points="245,215 255,192 268,215" fill="#c084fc" opacity="0.35"/>
  <polygon points="210,225 222,205 234,225" fill="#7c3aed" opacity="0.4"/>
  <polygon points="258,205 270,185 280,208" fill="#a855f7" opacity="0.3"/>
  <polygon points="232,235 245,215 256,237" fill="#c084fc" opacity="0.3"/>
  <!-- Tiny crystals -->
  <polygon points="218,240 224,228 230,240" fill="#e9d5ff" opacity="0.45"/>
  <polygon points="262,238 268,226 275,238" fill="#e9d5ff" opacity="0.4"/>
  <!-- Top conical flask -->
  <path d="M155 60 L185 115 L125 115 Z" fill="rgba(192,132,252,0.15)" stroke="#c084fc" stroke-width="1.2" stroke-opacity="0.5"/>
  <rect x="148" y="52" width="14" height="12" rx="2" fill="rgba(192,132,252,0.2)" stroke="#c084fc" stroke-width="1" stroke-opacity="0.5"/>
  <!-- Connection tube -->
  <path d="M162 115 C185 130 200 130 215 125" stroke="#c084fc" stroke-width="1.5" fill="none" stroke-opacity="0.4" stroke-dasharray="4 3"/>
  <!-- Left molecule net -->
  <circle cx="72" cy="90" r="8" fill="none" stroke="#a855f7" stroke-width="1.5" stroke-opacity="0.5"/>
  <circle cx="50" cy="68" r="5.5" fill="#a855f7" opacity="0.2"/>
  <circle cx="95" cy="65" r="5" fill="#a855f7" opacity="0.18"/>
  <circle cx="48" cy="112" r="5" fill="#c084fc" opacity="0.18"/>
  <line x1="72" y1="90" x2="50" y2="68" stroke="#a855f7" stroke-width="1.2" stroke-opacity="0.3"/>
  <line x1="72" y1="90" x2="95" y2="65" stroke="#a855f7" stroke-width="1.2" stroke-opacity="0.3"/>
  <line x1="72" y1="90" x2="48" y2="112" stroke="#a855f7" stroke-width="1.2" stroke-opacity="0.3"/>
  <!-- Right molecule net -->
  <circle cx="400" cy="90" r="7" fill="none" stroke="#a855f7" stroke-width="1.5" stroke-opacity="0.45"/>
  <circle cx="425" cy="70" r="5" fill="#a855f7" opacity="0.18"/>
  <circle cx="428" cy="112" r="4.5" fill="#c084fc" opacity="0.16"/>
  <line x1="400" y1="90" x2="425" y2="70" stroke="#a855f7" stroke-width="1.2" stroke-opacity="0.28"/>
  <line x1="400" y1="90" x2="428" y2="112" stroke="#a855f7" stroke-width="1.2" stroke-opacity="0.28"/>
  <!-- Accent dots -->
  <circle cx="355" cy="55" r="4" fill="#F2B50B" opacity="0.55"/>
  <circle cx="120" cy="170" r="3.5" fill="#F2B50B" opacity="0.5"/>
  <circle cx="400" cy="200" r="3" fill="#F2B50B" opacity="0.45"/>
  <!-- Label -->
  <rect x="143" y="283" width="194" height="25" rx="7" fill="rgba(168,85,247,0.1)" stroke="#a855f7" stroke-width="1" stroke-opacity="0.4"/>
  <text x="240" y="299" text-anchor="middle" font-family="system-ui,sans-serif" font-size="11" fill="#c084fc" font-weight="700" letter-spacing="0.5">SPECIALTY CHEMICALS</text>
  <rect x="20" y="20" width="80" height="24" rx="6" fill="rgba(168,85,247,0.1)" stroke="#a855f7" stroke-width="1" stroke-opacity="0.4"/>
  <text x="60" y="36" text-anchor="middle" font-family="system-ui,sans-serif" font-size="10" fill="#c084fc" font-weight="600">PRECISION</text>
</svg>
