<svg xmlns="http://www.w3.org/2000/svg" viewBox="0 0 480 320" fill="none">
  <defs>
    <linearGradient id="bg-wt" x1="0" y1="0" x2="480" y2="320" gradientUnits="userSpaceOnUse">
      <stop offset="0%" stop-color="#071e3a"/>
      <stop offset="100%" stop-color="#0c3460"/>
    </linearGradient>
    <linearGradient id="drop" x1="0" y1="0" x2="0" y2="1" gradientUnits="objectBoundingBox">
      <stop offset="0%" stop-color="#38bdf8" stop-opacity="0.3"/>
      <stop offset="100%" stop-color="#0369a1" stop-opacity="0.7"/>
    </linearGradient>
    <radialGradient id="glow-wt" cx="50%" cy="58%" r="40%">
      <stop offset="0%" stop-color="#0ea5e9" stop-opacity="0.28"/>
      <stop offset="100%" stop-color="#0ea5e9" stop-opacity="0"/>
    </radialGradient>
  </defs>
  <rect width="480" height="320" fill="url(#bg-wt)" rx="20"/>
  <path d="M0 40h480M0 80h480M0 120h480M0 160h480M0 200h480M0 240h480M0 280h480M40 0v320M80 0v320M120 0v320M160 0v320M200 0v320M240 0v320M280 0v320M320 0v320M360 0v320M400 0v320M440 0v320" stroke="rgba(255,255,255,0.04)" stroke-width="1"/>
  <ellipse cx="240" cy="195" rx="110" ry="75" fill="url(#glow-wt)"/>
  <!-- Large water droplet -->
  <path d="M240 55 C240 55 170 140 170 195 C170 233 202 262 240 262 C278 262 310 233 310 195 C310 140 240 55 240 55Z" fill="url(#drop)" stroke="#38bdf8" stroke-width="1.5" stroke-opacity="0.55"/>
  <!-- Inner highlight -->
  <path d="M240 90 C240 90 205 148 205 183 C205 202 218 215 232 218" stroke="#7dd3fc" stroke-width="2" stroke-linecap="round" stroke-opacity="0.4"/>
  <!-- Wave ripple 1 -->
  <ellipse cx="240" cy="262" rx="55" ry="10" stroke="#38bdf8" stroke-width="1.2" stroke-opacity="0.35" fill="none"/>
  <!-- Wave ripple 2 -->
  <ellipse cx="240" cy="262" rx="80" ry="15" stroke="#38bdf8" stroke-width="1" stroke-opacity="0.22" fill="none"/>
  <!-- Wave ripple 3 -->
  <ellipse cx="240" cy="262" rx="110" ry="20" stroke="#38bdf8" stroke-width="0.8" stroke-opacity="0.14" fill="none"/>
  <!-- Inner bubbles/molecules -->
  <circle cx="220" cy="200" r="6" fill="#7dd3fc" opacity="0.45"/>
  <circle cx="252" cy="215" r="4.5" fill="#7dd3fc" opacity="0.4"/>
  <circle cx="238" cy="228" r="5" fill="#7dd3fc" opacity="0.35"/>
  <circle cx="256" cy="190" r="3.5" fill="#bae6fd" opacity="0.5"/>
  <circle cx="225" cy="235" r="3" fill="#7dd3fc" opacity="0.3"/>
  <!-- Left molecule cluster -->
  <circle cx="82" cy="105" r="9" fill="none" stroke="#38bdf8" stroke-width="1.5" stroke-opacity="0.5"/>
  <circle cx="58" cy="85" r="6" fill="#38bdf8" opacity="0.2"/>
  <circle cx="105" cy="80" r="5.5" fill="#38bdf8" opacity="0.18"/>
  <circle cx="60" cy="128" r="5" fill="#38bdf8" opacity="0.16"/>
  <line x1="82" y1="105" x2="58" y2="85" stroke="#38bdf8" stroke-width="1.2" stroke-opacity="0.3"/>
  <line x1="82" y1="105" x2="105" y2="80" stroke="#38bdf8" stroke-width="1.2" stroke-opacity="0.3"/>
  <line x1="82" y1="105" x2="60" y2="128" stroke="#38bdf8" stroke-width="1.2" stroke-opacity="0.3"/>
  <!-- Right molecule cluster -->
  <circle cx="390" cy="115" r="8" fill="none" stroke="#38bdf8" stroke-width="1.5" stroke-opacity="0.45"/>
  <circle cx="415" cy="95" r="5.5" fill="#38bdf8" opacity="0.18"/>
  <circle cx="415" cy="138" r="5" fill="#38bdf8" opacity="0.15"/>
  <line x1="390" y1="115" x2="415" y2="95" stroke="#38bdf8" stroke-width="1.2" stroke-opacity="0.28"/>
  <line x1="390" y1="115" x2="415" y2="138" stroke="#38bdf8" stroke-width="1.2" stroke-opacity="0.28"/>
  <!-- Purity sparkles -->
  <circle cx="155" cy="190" r="3" fill="#F2B50B" opacity="0.55"/>
  <circle cx="340" cy="175" r="3.5" fill="#F2B50B" opacity="0.5"/>
  <circle cx="180" cy="240" r="2.5" fill="#F2B50B" opacity="0.4"/>
  <circle cx="320" cy="240" r="2.5" fill="#F2B50B" opacity="0.4"/>
  <!-- Label -->
  <rect x="148" y="280" width="184" height="25" rx="7" fill="rgba(56,189,248,0.1)" stroke="#38bdf8" stroke-width="1" stroke-opacity="0.4"/>
  <text x="240" y="296" text-anchor="middle" font-family="system-ui,sans-serif" font-size="11" fill="#7dd3fc" font-weight="700" letter-spacing="0.5">WATER TREATMENT</text>
  <rect x="20" y="20" width="80" height="24" rx="6" fill="rgba(56,189,248,0.1)" stroke="#38bdf8" stroke-width="1" stroke-opacity="0.4"/>
  <text x="60" y="36" text-anchor="middle" font-family="system-ui,sans-serif" font-size="10" fill="#7dd3fc" font-weight="600">PAC · ALUM</text>
</svg>
