<svg xmlns="http://www.w3.org/2000/svg" viewBox="0 0 600 400" fill="none">
  <defs>
    <linearGradient id="as-bg" x1="0" y1="0" x2="600" y2="400" gradientUnits="userSpaceOnUse">
      <stop offset="0%" stop-color="#0a1a0a"/>
      <stop offset="100%" stop-color="#0f2210"/>
    </linearGradient>
    <linearGradient id="donut-g" cx="50%" cy="50%" r="50%" gradientUnits="objectBoundingBox">
      <stop offset="0%" stop-color="#48A111"/>
      <stop offset="100%" stop-color="#25671E"/>
    </linearGradient>
  </defs>
  <rect width="600" height="400" fill="url(#as-bg)" rx="20"/>
  <path d="M0 40h600M0 80h600M0 120h600M0 160h600M0 200h600M0 240h600M0 280h600M0 320h600M0 360h600M60 0v400M120 0v400M180 0v400M240 0v400M300 0v400M360 0v400M420 0v400M480 0v400M540 0v400" stroke="rgba(255,255,255,0.025)" stroke-width="1"/>
  <!-- Title bar -->
  <text x="30" y="38" font-family="system-ui,sans-serif" font-size="14" fill="rgba(255,255,255,0.8)" font-weight="700">Market Distribution</text>
  <text x="30" y="55" font-family="system-ui,sans-serif" font-size="10" fill="rgba(255,255,255,0.35)">Revenue breakdown by industry segment · FY 2025</text>
  <!-- Donut chart -->
  <circle cx="185" cy="220" r="95" fill="none" stroke="#1e3d1a" stroke-width="40"/>
  <!-- Segments (approximate percentages) -->
  <!-- Agriculture 32% -->
  <circle cx="185" cy="220" r="95" fill="none" stroke="#48A111" stroke-width="40" stroke-dasharray="190 406" transform="rotate(-90 185 220)" stroke-linecap="butt"/>
  <!-- Water Treatment 24% -->
  <circle cx="185" cy="220" r="95" fill="none" stroke="#0369a1" stroke-width="40" stroke-dasharray="150 446" transform="rotate(17 185 220)" stroke-linecap="butt"/>
  <!-- Industrial 22% -->
  <circle cx="185" cy="220" r="95" fill="none" stroke="#1e6b3e" stroke-width="40" stroke-dasharray="138 458" transform="rotate(121 185 220)" stroke-linecap="butt"/>
  <!-- Specialty 14% -->
  <circle cx="185" cy="220" r="95" fill="none" stroke="#7c3aed" stroke-width="40" stroke-dasharray="88 508" transform="rotate(210 185 220)" stroke-linecap="butt"/>
  <!-- Other 8% -->
  <circle cx="185" cy="220" r="95" fill="none" stroke="#c07d12" stroke-width="40" stroke-dasharray="50 546" transform="rotate(263 185 220)" stroke-linecap="butt"/>
  <!-- Center -->
  <circle cx="185" cy="220" r="55" fill="#0f2210"/>
  <text x="185" y="213" text-anchor="middle" font-family="system-ui,sans-serif" font-size="22" fill="#ffffff" font-weight="900">₹850</text>
  <text x="185" y="228" text-anchor="middle" font-family="system-ui,sans-serif" font-size="10" fill="rgba(255,255,255,0.4)">Crore Total</text>
  <text x="185" y="243" text-anchor="middle" font-family="system-ui,sans-serif" font-size="9" fill="#48A111">↑ 18% YoY</text>
  <!-- Legend -->
  <rect x="18" y="340" width="12" height="12" rx="3" fill="#48A111"/>
  <text x="36" y="351" font-family="system-ui,sans-serif" font-size="10" fill="rgba(255,255,255,0.65)">Agriculture 32%</text>
  <rect x="138" y="340" width="12" height="12" rx="3" fill="#0369a1"/>
  <text x="156" y="351" font-family="system-ui,sans-serif" font-size="10" fill="rgba(255,255,255,0.65)">Water 24%</text>
  <rect x="246" y="340" width="12" height="12" rx="3" fill="#1e6b3e"/>
  <text x="264" y="351" font-family="system-ui,sans-serif" font-size="10" fill="rgba(255,255,255,0.65)">Industrial 22%</text>
  <rect x="18" y="360" width="12" height="12" rx="3" fill="#7c3aed"/>
  <text x="36" y="371" font-family="system-ui,sans-serif" font-size="10" fill="rgba(255,255,255,0.65)">Specialty 14%</text>
  <rect x="138" y="360" width="12" height="12" rx="3" fill="#c07d12"/>
  <text x="156" y="371" font-family="system-ui,sans-serif" font-size="10" fill="rgba(255,255,255,0.65)">Other 8%</text>
  <!-- Right panel - top segments -->
  <text x="340" y="80" font-family="system-ui,sans-serif" font-size="11" fill="rgba(255,255,255,0.4)" font-weight="600" letter-spacing="0.5">TOP SEGMENTS BY GROWTH</text>
  <!-- Horizontal bar 1 -->
  <text x="340" y="108" font-family="system-ui,sans-serif" font-size="10" fill="rgba(255,255,255,0.7)">Agriculture</text>
  <text x="578" y="108" text-anchor="end" font-family="system-ui,sans-serif" font-size="10" fill="#6bce2a" font-weight="700">+28%</text>
  <rect x="340" y="114" width="238" height="8" rx="4" fill="rgba(255,255,255,0.05)"/>
  <rect x="340" y="114" width="185" height="8" rx="4" fill="#48A111" opacity="0.85"/>
  <!-- Horizontal bar 2 -->
  <text x="340" y="140" font-family="system-ui,sans-serif" font-size="10" fill="rgba(255,255,255,0.7)">Water Treatment</text>
  <text x="578" y="140" text-anchor="end" font-family="system-ui,sans-serif" font-size="10" fill="#60a5fa" font-weight="700">+21%</text>
  <rect x="340" y="146" width="238" height="8" rx="4" fill="rgba(255,255,255,0.05)"/>
  <rect x="340" y="146" width="162" height="8" rx="4" fill="#0369a1" opacity="0.85"/>
  <!-- Horizontal bar 3 -->
  <text x="340" y="172" font-family="system-ui,sans-serif" font-size="10" fill="rgba(255,255,255,0.7)">Specialty Chemicals</text>
  <text x="578" y="172" text-anchor="end" font-family="system-ui,sans-serif" font-size="10" fill="#c084fc" font-weight="700">+19%</text>
  <rect x="340" y="178" width="238" height="8" rx="4" fill="rgba(255,255,255,0.05)"/>
  <rect x="340" y="178" width="138" height="8" rx="4" fill="#7c3aed" opacity="0.85"/>
  <!-- Horizontal bar 4 -->
  <text x="340" y="204" font-family="system-ui,sans-serif" font-size="10" fill="rgba(255,255,255,0.7)">Industrial</text>
  <text x="578" y="204" text-anchor="end" font-family="system-ui,sans-serif" font-size="10" fill="#6bce2a" font-weight="700">+14%</text>
  <rect x="340" y="210" width="238" height="8" rx="4" fill="rgba(255,255,255,0.05)"/>
  <rect x="340" y="210" width="110" height="8" rx="4" fill="#1e6b3e" opacity="0.85"/>
  <!-- Divider -->
  <line x1="340" y1="228" x2="580" y2="228" stroke="rgba(255,255,255,0.06)" stroke-width="1"/>
  <!-- KPI grid -->
  <text x="340" y="248" font-family="system-ui,sans-serif" font-size="11" fill="rgba(255,255,255,0.4)" font-weight="600" letter-spacing="0.5">KEY PERFORMANCE METRICS</text>
  <rect x="340" y="260" width="110" height="65" rx="10" fill="rgba(72,161,17,0.1)" stroke="rgba(72,161,17,0.25)" stroke-width="1"/>
  <text x="395" y="290" text-anchor="middle" font-family="system-ui,sans-serif" font-size="20" fill="#6bce2a" font-weight="800">150+</text>
  <text x="395" y="308" text-anchor="middle" font-family="system-ui,sans-serif" font-size="9" fill="rgba(255,255,255,0.4)">Products</text>
  <rect x="462" y="260" width="110" height="65" rx="10" fill="rgba(242,181,11,0.08)" stroke="rgba(242,181,11,0.2)" stroke-width="1"/>
  <text x="517" y="290" text-anchor="middle" font-family="system-ui,sans-serif" font-size="20" fill="#F2B50B" font-weight="800">28yr</text>
  <text x="517" y="308" text-anchor="middle" font-family="system-ui,sans-serif" font-size="9" fill="rgba(255,255,255,0.4)">Experience</text>
  <rect x="340" y="338" width="110" height="55" rx="10" fill="rgba(96,165,250,0.08)" stroke="rgba(96,165,250,0.2)" stroke-width="1"/>
  <text x="395" y="365" text-anchor="middle" font-family="system-ui,sans-serif" font-size="20" fill="#60a5fa" font-weight="800">45</text>
  <text x="395" y="380" text-anchor="middle" font-family="system-ui,sans-serif" font-size="9" fill="rgba(255,255,255,0.4)">Countries</text>
  <rect x="462" y="338" width="110" height="55" rx="10" fill="rgba(167,243,208,0.06)" stroke="rgba(167,243,208,0.15)" stroke-width="1"/>
  <text x="517" y="365" text-anchor="middle" font-family="system-ui,sans-serif" font-size="18" fill="#a7f3d0" font-weight="800">2,500+</text>
  <text x="517" y="380" text-anchor="middle" font-family="system-ui,sans-serif" font-size="9" fill="rgba(255,255,255,0.4)">Clients</text>
</svg>
