<svg xmlns="http://www.w3.org/2000/svg" viewBox="0 0 800 500" fill="none">
  <defs>
    <linearGradient id="fp-bg" x1="0" y1="0" x2="800" y2="500" gradientUnits="userSpaceOnUse">
      <stop offset="0%" stop-color="#07120a"/>
      <stop offset="100%" stop-color="#0f2410"/>
    </linearGradient>
    <linearGradient id="fp-bar-g" x1="0" y1="1" x2="0" y2="0" gradientUnits="objectBoundingBox">
      <stop offset="0%" stop-color="#25671E"/>
      <stop offset="100%" stop-color="#6bce2a"/>
    </linearGradient>
    <linearGradient id="fp-bar-a" x1="0" y1="1" x2="0" y2="0" gradientUnits="objectBoundingBox">
      <stop offset="0%" stop-color="#d99f09"/>
      <stop offset="100%" stop-color="#F2B50B"/>
    </linearGradient>
    <linearGradient id="line-chart" x1="0" y1="0" x2="1" y2="0" gradientUnits="objectBoundingBox">
      <stop offset="0%" stop-color="#48A111"/>
      <stop offset="100%" stop-color="#F2B50B"/>
    </linearGradient>
  </defs>
  <rect width="800" height="500" fill="url(#fp-bg)" rx="24"/>
  <!-- Grid -->
  <path d="M0 50h800M0 100h800M0 150h800M0 200h800M0 250h800M0 300h800M0 350h800M0 400h800M0 450h800M50 0v500M100 0v500M150 0v500M200 0v500M250 0v500M300 0v500M350 0v500M400 0v500M450 0v500M500 0v500M550 0v500M600 0v500M650 0v500M700 0v500M750 0v500" stroke="rgba(255,255,255,0.025)" stroke-width="1"/>
  <!-- Header bar -->
  <rect width="800" height="52" fill="rgba(255,255,255,0.03)" rx="24"/>
  <rect x="0" y="26" width="800" height="26" fill="rgba(255,255,255,0.03)"/>
  <circle cx="22" cy="26" r="6" fill="#ef4444" opacity="0.65"/>
  <circle cx="40" cy="26" r="6" fill="#F2B50B" opacity="0.65"/>
  <circle cx="58" cy="26" r="6" fill="#48A111" opacity="0.65"/>
  <text x="400" y="31" text-anchor="middle" font-family="system-ui,sans-serif" font-size="11" fill="rgba(255,255,255,0.3)" font-weight="500">NovaChem Operations Intelligence — Quality Control Dashboard</text>
  <!-- Sidebar -->
  <rect x="0" y="52" width="180" height="448" fill="rgba(255,255,255,0.02)" rx="0"/>
  <rect x="180" y="52" width="1" height="448" fill="rgba(255,255,255,0.05)"/>
  <!-- Sidebar items -->
  <rect x="16" y="76" width="148" height="36" rx="8" fill="rgba(72,161,17,0.18)" stroke="#48A111" stroke-width="1" stroke-opacity="0.5"/>
  <text x="36" y="99" font-family="system-ui,sans-serif" font-size="12" fill="#6bce2a" font-weight="600">Quality Control</text>
  <rect x="16" y="120" width="148" height="36" rx="8"/>
  <text x="36" y="143" font-family="system-ui,sans-serif" font-size="12" fill="rgba(255,255,255,0.4)" font-weight="500">Production</text>
  <rect x="16" y="164" width="148" height="36" rx="8"/>
  <text x="36" y="187" font-family="system-ui,sans-serif" font-size="12" fill="rgba(255,255,255,0.4)" font-weight="500">Inventory</text>
  <rect x="16" y="208" width="148" height="36" rx="8"/>
  <text x="36" y="231" font-family="system-ui,sans-serif" font-size="12" fill="rgba(255,255,255,0.4)" font-weight="500">Shipments</text>
  <rect x="16" y="252" width="148" height="36" rx="8"/>
  <text x="36" y="275" font-family="system-ui,sans-serif" font-size="12" fill="rgba(255,255,255,0.4)" font-weight="500">Lab Results</text>
  <rect x="16" y="296" width="148" height="36" rx="8"/>
  <text x="36" y="319" font-family="system-ui,sans-serif" font-size="12" fill="rgba(255,255,255,0.4)" font-weight="500">Certifications</text>
  <!-- Main content -->
  <!-- Top metric cards -->
  <rect x="200" y="70" width="140" height="80" rx="12" fill="rgba(72,161,17,0.1)" stroke="rgba(72,161,17,0.25)" stroke-width="1"/>
  <text x="220" y="102" font-family="system-ui,sans-serif" font-size="24" fill="#6bce2a" font-weight="800">99.8%</text>
  <text x="220" y="120" font-family="system-ui,sans-serif" font-size="10" fill="rgba(255,255,255,0.4)">Overall Purity Score</text>
  <rect x="200" y="72" width="4" height="76" rx="2" fill="#48A111"/>
  <rect x="352" y="70" width="140" height="80" rx="12" fill="rgba(242,181,11,0.08)" stroke="rgba(242,181,11,0.2)" stroke-width="1"/>
  <text x="372" y="102" font-family="system-ui,sans-serif" font-size="24" fill="#F2B50B" font-weight="800">2,847</text>
  <text x="372" y="120" font-family="system-ui,sans-serif" font-size="10" fill="rgba(255,255,255,0.4)">Batches Tested</text>
  <rect x="352" y="72" width="4" height="76" rx="2" fill="#F2B50B"/>
  <rect x="504" y="70" width="140" height="80" rx="12" fill="rgba(96,165,250,0.08)" stroke="rgba(96,165,250,0.2)" stroke-width="1"/>
  <text x="524" y="102" font-family="system-ui,sans-serif" font-size="24" fill="#60a5fa" font-weight="800">45</text>
  <text x="524" y="120" font-family="system-ui,sans-serif" font-size="10" fill="rgba(255,255,255,0.4)">Export Countries</text>
  <rect x="504" y="72" width="4" height="76" rx="2" fill="#60a5fa"/>
  <rect x="656" y="70" width="128" height="80" rx="12" fill="rgba(167,243,208,0.06)" stroke="rgba(167,243,208,0.15)" stroke-width="1"/>
  <text x="676" y="102" font-family="system-ui,sans-serif" font-size="24" fill="#a7f3d0" font-weight="800">₹850Cr</text>
  <text x="676" y="120" font-family="system-ui,sans-serif" font-size="10" fill="rgba(255,255,255,0.4)">Annual Revenue</text>
  <rect x="656" y="72" width="4" height="76" rx="2" fill="#a7f3d0"/>
  <!-- Line chart -->
  <rect x="200" y="168" width="390" height="200" rx="12" fill="rgba(255,255,255,0.02)" stroke="rgba(255,255,255,0.06)" stroke-width="1"/>
  <text x="220" y="192" font-family="system-ui,sans-serif" font-size="11" fill="rgba(255,255,255,0.4)" font-weight="600" letter-spacing="0.5">QUALITY TREND — 12 MONTHS</text>
  <!-- Grid lines -->
  <line x1="220" y1="200" x2="570" y2="200" stroke="rgba(255,255,255,0.04)" stroke-width="1" stroke-dasharray="4 4"/>
  <line x1="220" y1="230" x2="570" y2="230" stroke="rgba(255,255,255,0.04)" stroke-width="1" stroke-dasharray="4 4"/>
  <line x1="220" y1="260" x2="570" y2="260" stroke="rgba(255,255,255,0.04)" stroke-width="1" stroke-dasharray="4 4"/>
  <line x1="220" y1="290" x2="570" y2="290" stroke="rgba(255,255,255,0.04)" stroke-width="1" stroke-dasharray="4 4"/>
  <line x1="220" y1="350" x2="570" y2="350" stroke="rgba(255,255,255,0.04)" stroke-width="1"/>
  <!-- Area fill -->
  <path d="M220 310 C255 300 270 290 305 282 C340 274 355 270 390 255 C420 242 440 240 475 230 C505 222 530 218 570 210 L570 350 L220 350 Z" fill="url(#fp-bar-g)" opacity="0.08"/>
  <!-- Line -->
  <path d="M220 310 C255 300 270 290 305 282 C340 274 355 270 390 255 C420 242 440 240 475 230 C505 222 530 218 570 210" stroke="url(#line-chart)" stroke-width="2.5" stroke-linecap="round" fill="none"/>
  <!-- Data points -->
  <circle cx="220" cy="310" r="4" fill="#48A111"/>
  <circle cx="305" cy="282" r="4" fill="#48A111"/>
  <circle cx="390" cy="255" r="4" fill="#48A111"/>
  <circle cx="475" cy="230" r="4" fill="#F2B50B"/>
  <circle cx="570" cy="210" r="5" fill="#F2B50B" stroke="#fde68a" stroke-width="2"/>
  <!-- Tooltip on last point -->
  <rect x="548" y="188" width="66" height="32" rx="6" fill="#F2B50B"/>
  <path d="M575 220 L581 228 L587 220" fill="#F2B50B"/>
  <text x="581" y="201" text-anchor="middle" font-family="system-ui,sans-serif" font-size="11" fill="#1a4d15" font-weight="800">99.8%</text>
  <text x="581" y="213" text-anchor="middle" font-family="system-ui,sans-serif" font-size="8" fill="#1a4d15" font-weight="600">Dec 2025</text>
  <!-- Bar chart (right panel) -->
  <rect x="606" y="168" width="178" height="200" rx="12" fill="rgba(255,255,255,0.02)" stroke="rgba(255,255,255,0.06)" stroke-width="1"/>
  <text x="626" y="192" font-family="system-ui,sans-serif" font-size="10" fill="rgba(255,255,255,0.4)" font-weight="600" letter-spacing="0.5">PRODUCT MIX</text>
  <!-- Bars -->
  <rect x="626" y="298" width="24" height="52" rx="4" fill="url(#fp-bar-g)" opacity="0.85"/>
  <rect x="658" y="278" width="24" height="72" rx="4" fill="url(#fp-bar-a)" opacity="0.8"/>
  <rect x="690" y="285" width="24" height="65" rx="4" fill="url(#fp-bar-g)" opacity="0.75"/>
  <rect x="722" y="265" width="24" height="85" rx="4" fill="url(#fp-bar-a)" opacity="0.85"/>
  <rect x="754" y="270" width="22" height="80" rx="4" fill="url(#fp-bar-g)" opacity="0.8"/>
  <text x="638" y="362" text-anchor="middle" font-family="system-ui,sans-serif" font-size="8" fill="rgba(255,255,255,0.35)">IND</text>
  <text x="670" y="362" text-anchor="middle" font-family="system-ui,sans-serif" font-size="8" fill="rgba(255,255,255,0.35)">AGR</text>
  <text x="702" y="362" text-anchor="middle" font-family="system-ui,sans-serif" font-size="8" fill="rgba(255,255,255,0.35)">WAT</text>
  <text x="734" y="362" text-anchor="middle" font-family="system-ui,sans-serif" font-size="8" fill="rgba(255,255,255,0.35)">SPC</text>
  <text x="765" y="362" text-anchor="middle" font-family="system-ui,sans-serif" font-size="8" fill="rgba(255,255,255,0.35)">SOI</text>
  <!-- Recent tests table -->
  <rect x="200" y="382" width="584" height="100" rx="12" fill="rgba(255,255,255,0.02)" stroke="rgba(255,255,255,0.06)" stroke-width="1"/>
  <text x="220" y="404" font-family="system-ui,sans-serif" font-size="10" fill="rgba(255,255,255,0.4)" font-weight="600" letter-spacing="0.5">RECENT QC RESULTS</text>
  <line x1="200" y1="412" x2="784" y2="412" stroke="rgba(255,255,255,0.05)" stroke-width="1"/>
  <!-- Table header -->
  <text x="220" y="427" font-family="system-ui,sans-serif" font-size="9" fill="rgba(255,255,255,0.3)" font-weight="600">PRODUCT</text>
  <text x="420" y="427" font-family="system-ui,sans-serif" font-size="9" fill="rgba(255,255,255,0.3)" font-weight="600">BATCH</text>
  <text x="520" y="427" font-family="system-ui,sans-serif" font-size="9" fill="rgba(255,255,255,0.3)" font-weight="600">PURITY</text>
  <text x="640" y="427" font-family="system-ui,sans-serif" font-size="9" fill="rgba(255,255,255,0.3)" font-weight="600">STATUS</text>
  <!-- Row 1 -->
  <text x="220" y="448" font-family="system-ui,sans-serif" font-size="10" fill="rgba(255,255,255,0.7)">Sulfuric Acid H₂SO₄</text>
  <text x="420" y="448" font-family="system-ui,sans-serif" font-size="10" fill="rgba(255,255,255,0.5)" font-weight="600">NC-2025-1847</text>
  <text x="520" y="448" font-family="system-ui,sans-serif" font-size="10" fill="#6bce2a" font-weight="700">98.7%</text>
  <rect x="640" y="438" width="52" height="16" rx="4" fill="rgba(72,161,17,0.2)"/>
  <text x="666" y="450" text-anchor="middle" font-family="system-ui,sans-serif" font-size="9" fill="#6bce2a" font-weight="600">PASSED</text>
  <!-- Row 2 -->
  <text x="220" y="468" font-family="system-ui,sans-serif" font-size="10" fill="rgba(255,255,255,0.7)">NPK Fertilizer 19-19-19</text>
  <text x="420" y="468" font-family="system-ui,sans-serif" font-size="10" fill="rgba(255,255,255,0.5)" font-weight="600">NC-2025-1846</text>
  <text x="520" y="468" font-family="system-ui,sans-serif" font-size="10" fill="#6bce2a" font-weight="700">99.1%</text>
  <rect x="640" y="458" width="52" height="16" rx="4" fill="rgba(72,161,17,0.2)"/>
  <text x="666" y="470" text-anchor="middle" font-family="system-ui,sans-serif" font-size="9" fill="#6bce2a" font-weight="600">PASSED</text>
</svg>
